<?xml version="1.0" encoding="UTF-8"?>
<svg width="618px" height="600px" viewBox="0 0 618 600" version="1.1" xmlns="http://www.w3.org/2000/svg" xmlns:xlink="http://www.w3.org/1999/xlink"><script xmlns=""/>
    <!-- Generator: Sketch 49 (51002) - http://www.bohemiancoding.com/sketch -->
    <title>Untitled</title>
    <desc>Created with Sketch.</desc>
    <defs>
        <polygon id="path-1" points="480 154.285714 480 0 0 0 0 600 480 600 480 445.714286 377.142857 445.714286 377.142857 497.142857 102.857143 497.142857 102.857143 102.857143 377.142857 102.857143 377.142857 154.285714"/>
        <polygon id="path-3" points="128.715429 94.4285714 205.857143 94.4285714 205.857143 0.141714286 0.144 0.141714286 0.144 197.285714 128.715429 197.285714 128.715429 257.285714 77.2857143 257.285714 77.2857143 231.571429 0.144 231.571429 0.144 325.857143 205.857143 325.857143 205.857143 128.714286 77.2857143 128.714286 77.2845714 68.7142857 128.714286 68.7142857"/>
        <polygon id="path-5" points="103 342.857143 103 411.428571 0.142857143 411.428571 0.142857143 188.571429 103 188.571429 103 257.142857 137.285714 257.142857 137.285714 0 240.142857 0 240.142857 600 137.285714 600 137.285714 342.857143"/>
    </defs>
    <g id="Page-1" stroke="none" stroke-width="1" fill="none" fill-rule="evenodd">
        <g id="Group">
            <g id="Rectangle-+-Rectangle-+-Rectangle-+-Rectangle-+-Rectangle-+-Rectangle-Mask">
                <mask id="mask-2" fill="white">
                    <use xlink:href="#path-1"/>
                </mask>
                <use id="Mask" fill="#000000" fill-rule="nonzero" xlink:href="#path-1"/>
                <rect id="Rectangle" fill="#D1B866" mask="url(#mask-2)" x="-22" y="200" width="662" height="101"/>
                <rect id="Rectangle" fill="#7A9F60" mask="url(#mask-2)" x="-22" y="300" width="662" height="101"/>
                <rect id="Rectangle" fill="#3B84C0" mask="url(#mask-2)" x="-22" y="394" width="662" height="107"/>
                <rect id="Rectangle" fill="#9A52AF" mask="url(#mask-2)" x="-22" y="497" width="662" height="104"/>
                <rect id="Rectangle" fill="#D19A66" mask="url(#mask-2)" x="-22" y="100" width="662" height="106"/>
                <rect id="Rectangle" fill="#BE5046" mask="url(#mask-2)" x="-22" y="0" width="662" height="103"/>
            </g>
            <g id="Rectangle-+-Rectangle-+-Rectangle-+-Rectangle-+-Rectangle-+-Rectangle-Mask" transform="translate(137.000000, 137.000000)">
                <mask id="mask-4" fill="white">
                    <use xlink:href="#path-3"/>
                </mask>
                <use id="Mask" fill="#000000" fill-rule="nonzero" xlink:href="#path-3"/>
                <rect id="Rectangle" fill="#D1B866" mask="url(#mask-4)" x="-159" y="63" width="662" height="101"/>
                <rect id="Rectangle" fill="#7A9F60" mask="url(#mask-4)" x="-159" y="163" width="662" height="101"/>
                <rect id="Rectangle" fill="#3B84C0" mask="url(#mask-4)" x="-159" y="257" width="662" height="107"/>
                <rect id="Rectangle" fill="#9A52AF" mask="url(#mask-4)" x="-159" y="360" width="662" height="104"/>
                <rect id="Rectangle" fill="#D19A66" mask="url(#mask-4)" x="-159" y="-37" width="662" height="106"/>
                <rect id="Rectangle" fill="#BE5046" mask="url(#mask-4)" x="-159" y="-137" width="662" height="103"/>
            </g>
            <g id="Rectangle-+-Rectangle-+-Rectangle-+-Rectangle-+-Rectangle-+-Rectangle-Mask" transform="translate(377.000000, 0.000000)">
                <mask id="mask-6" fill="white">
                    <use xlink:href="#path-5"/>
                </mask>
                <use id="Mask" fill="#000000" fill-rule="nonzero" xlink:href="#path-5"/>
                <rect id="Rectangle" fill="#D1B866" mask="url(#mask-6)" x="-399" y="200" width="662" height="101"/>
                <rect id="Rectangle" fill="#7A9F60" mask="url(#mask-6)" x="-399" y="300" width="662" height="101"/>
                <rect id="Rectangle" fill="#3B84C0" mask="url(#mask-6)" x="-399" y="394" width="662" height="107"/>
                <rect id="Rectangle" fill="#9A52AF" mask="url(#mask-6)" x="-399" y="497" width="662" height="104"/>
                <rect id="Rectangle" fill="#D19A66" mask="url(#mask-6)" x="-399" y="100" width="662" height="106"/>
                <rect id="Rectangle" fill="#BE5046" mask="url(#mask-6)" x="-399" y="0" width="662" height="103"/>
            </g>
        </g>
    </g>
</svg>